<svg width="40" height="40" viewBox="0 0 40 40" fill="none" xmlns="http://www.w3.org/2000/svg">
  <circle cx="20" cy="20" r="18" fill="#3850b2" opacity="0" />
  <path d="M20 20C20 20 20 20 20 20ZM20 20C20 20 20 20 20 20Z" fill="none" />
  <path d="M19.9992 8C18.5562 8 17.2312 8.89 16.6682 10.315C16.1052 11.74 16.4502 13.28 17.5682 14.27C15.6342 14.55 13.8462 16.215 13.5502 18.28C13.2542 20.345 14.3722 22.355 16.2952 22.96C14.8522 24.31 14.3832 26.545 15.3142 28.195C16.2452 29.845 18.1792 30.41 19.9992 29.51C19.9992 29.51 19.9992 20 19.9992 8Z" fill="black" />
  <path d="M26.7308 11.0004C25.8198 9.84541 24.2508 9.39041 22.8518 9.98041C21.4418 10.5704 20.6408 12.0344 20.7308 13.5054C19.3428 12.0124 17.1068 11.5574 15.3018 12.5754C13.4968 13.5934 12.6738 15.8344 13.2628 17.8034C11.5688 17.0614 9.43884 17.8344 8.45984 19.4444C7.48084 21.0654 7.99784 23.0454 9.53984 23.9754C9.53984 23.9754 18.1308 19.4884 26.7308 11.0004Z" fill="black" />
  <path d="M22.2704 29.9992C23.6244 29.3142 24.1184 27.7122 23.5804 26.2992C23.0434 24.8862 21.6084 24.0152 20.1994 24.2232C21.7224 22.9522 22.3224 20.7672 21.4334 18.9042C20.5444 17.0412 18.3634 16.1112 16.3934 16.6132C17.1944 14.9542 16.5534 12.7702 15.0244 11.7252C13.4844 10.6802 11.5224 11.0452 10.4604 12.5242C10.4604 12.5242 15.3504 20.5402 22.2704 29.9992Z" fill="black" />
</svg> 